<svg xmlns="http://www.w3.org/2000/svg" xmlns:xlink="http://www.w3.org/1999/xlink" width="323" height="188" viewBox="0 0 323 188"><defs><clipPath id="a"><rect width="323" height="188" transform="translate(-289 -309.452)" fill="#fff" stroke="#707070" stroke-width="1"/></clipPath><clipPath id="b"><rect width="323" height="146" fill="#fff" stroke="#707070" stroke-width="1.285"/></clipPath><clipPath id="c"><rect width="145.43" height="133.271" fill="#fff" stroke="#707070" stroke-width="0.572"/></clipPath></defs><g transform="translate(289 309.452)" clip-path="url(#a)"><g transform="translate(-289 -309.452)" clip-path="url(#b)"><g transform="translate(9.201 9.866)"><path d="M22.247,5.807q.2,1.164.288,2.349.161,1.754.161,2.553a2.928,2.928,0,0,1-.127.759A5.722,5.722,0,0,1,21.26,11.3a21.445,21.445,0,0,0-1.918-3.015,8.716,8.716,0,0,0-2.669-1.949,6.135,6.135,0,0,0-2.764-.593A6.517,6.517,0,0,0,8.656,8.82a15.316,15.316,0,0,0-2.275,9.142,17.537,17.537,0,0,0,.885,5.531A9.23,9.23,0,0,0,9.922,27.7a6.186,6.186,0,0,0,4.172,1.526,9.644,9.644,0,0,0,2.47-.347,1.98,1.98,0,0,0,1.075-.653,1.852,1.852,0,0,0,.38-.981,30,30,0,0,0,.143-3.37q0-2.116-.052-2.91a1.027,1.027,0,0,0-.242-.4,3.362,3.362,0,0,0-.724-.291l-1.585-.489a1.084,1.084,0,0,1-.645-.349,3.284,3.284,0,0,1-.036-.389A3.606,3.606,0,0,1,15,18.258a1.541,1.541,0,0,1,.453-.124q1.952,0,3.385.145.5.037,1.093.037l2.83-.04,1.2-.04a11.44,11.44,0,0,1,1.2.04q.018.529.018.9a1.3,1.3,0,0,1-.127.513,6.541,6.541,0,0,1-1.039.529,3.515,3.515,0,0,0-.824.418,1.01,1.01,0,0,0-.2.511q-.052.347-.052,2.436,0,2.415-.018,2.886-.072,1.516-.072,1.719a1.545,1.545,0,0,1-.179.942,7.769,7.769,0,0,1-3.106,1.3,22.647,22.647,0,0,1-6.061.725,17.624,17.624,0,0,1-4.2-.434,9.216,9.216,0,0,1-3.036-1.3,11.757,11.757,0,0,1-2.88-2.8A11.98,11.98,0,0,1,1.6,23.075a18.445,18.445,0,0,1-.84-5.4A16.618,16.618,0,0,1,1.98,11.56,13.409,13.409,0,0,1,4.5,7.521,11.688,11.688,0,0,1,8.548,4.659a13.061,13.061,0,0,1,5.3-1.058,10.4,10.4,0,0,1,1.164.1,12.965,12.965,0,0,1,4.075.627,12.422,12.422,0,0,1,3.151,1.487Zm5.105,13.956a9.947,9.947,0,0,1,.824-2.317,10.1,10.1,0,0,1,2.137-2.629,6.755,6.755,0,0,1,2.049-1.254,6.454,6.454,0,0,1,1.922-.386,10.177,10.177,0,0,1,2.717.3,4.951,4.951,0,0,1,1.736.849,8.879,8.879,0,0,1,1.612,1.619,7.144,7.144,0,0,1,.994,1.926,8.851,8.851,0,0,1,.412,2.682l-1.988-.04q-.824,0-3.622-.18-1.039-.1-1.433-.1l-1.933.04H31.242a4.084,4.084,0,0,0-.036.495,12.084,12.084,0,0,0,.226,2.293,8.019,8.019,0,0,0,.7,2.116,5.766,5.766,0,0,0,1.155,1.574,4.424,4.424,0,0,0,1.424.947l1.039.391a10.489,10.489,0,0,0,1.863-.093,7.377,7.377,0,0,0,1.517-.529,8.691,8.691,0,0,0,1.585-1.077,13.89,13.89,0,0,1,1.075.965,10.62,10.62,0,0,1-3.267,2.883,7.99,7.99,0,0,1-3.788.891,7.714,7.714,0,0,1-2.312-.291A6.634,6.634,0,0,1,30.254,29.7a7.169,7.169,0,0,1-1.666-1.883A9.216,9.216,0,0,1,27.549,25.5,9.6,9.6,0,0,1,27.1,23a18.867,18.867,0,0,1,.247-3.232Zm10.414-.87a6.813,6.813,0,0,0-.394-2.206,3.422,3.422,0,0,0-1.164-1.637,2.517,2.517,0,0,0-3.76.622,5.691,5.691,0,0,0-1.107,3.285l4.075.04q.394,0,1.109-.061.521-.056.736-.056Zm6.878,6.01a3.977,3.977,0,0,1,.788-.124q.127,0,.38.021l.161.206a22.18,22.18,0,0,0,1.27,2.359,8.068,8.068,0,0,0,1.236,1.354,5.25,5.25,0,0,0,1.29.677,3.228,3.228,0,0,0,1.254.246,2.6,2.6,0,0,0,1.933-.831,2.526,2.526,0,0,0,.8-1.8,1.987,1.987,0,0,0-.306-1.119,3.055,3.055,0,0,0-1.218-.913,17.164,17.164,0,0,0-2.248-.738q-1.8-.513-2.176-.677a4.834,4.834,0,0,1-1.494-1.026,4.547,4.547,0,0,1-.994-1.479,5.591,5.591,0,0,1-.466-2.01,7.025,7.025,0,0,1,.394-2.553,4.777,4.777,0,0,1,2.674-2.8,5.409,5.409,0,0,1,2.248-.473,14.889,14.889,0,0,1,2.991.265,7.027,7.027,0,0,1,2.185.794q.106.473.306,2.172t.2,2.01a.994.994,0,0,1-.052.307,2.424,2.424,0,0,1-.77.164,4.895,4.895,0,0,1-.521-.04q-.161-.291-.43-.862a7.507,7.507,0,0,0-1.764-2.574,3.174,3.174,0,0,0-2.087-.749,2.857,2.857,0,0,0-2.078.82,2.163,2.163,0,0,0-.609,1.621,2.063,2.063,0,0,0,.632,1.375,4.04,4.04,0,0,0,2.178,1.087,16.277,16.277,0,0,1,3.464,1.19,5.388,5.388,0,0,1,2.275,2.029,5.448,5.448,0,0,1,.654,2.711,5.426,5.426,0,0,1-1.567,3.968A6.127,6.127,0,0,1,50.6,31.108q-.394,0-2.058-.206a11.823,11.823,0,0,1-1.77-.41q-.254-.082-1.309-.6a.7.7,0,0,1-.276-.3,11.439,11.439,0,0,1-.242-1.711q-.294-2.5-.315-2.994Zm14.7-9.814A10.783,10.783,0,0,0,62.4,13.081a12.989,12.989,0,0,0,2.015-3.2h1a3.881,3.881,0,0,1,.161,1.129q0,1.058-.018,1.661l-.052,1.209q0,.1.018.473l.412.021q.091,0,1.682-.082l1.343-.04a5.133,5.133,0,0,1,.106.976,5.72,5.72,0,0,1-.127,1.1,4.815,4.815,0,0,1-.906.124,3.865,3.865,0,0,1-.573-.082h-.93l-.326-.024-.86.061-.036,7.843a22.306,22.306,0,0,0,.082,2.841,2.967,2.967,0,0,0,.421,1.077,2.156,2.156,0,0,0,1.621.122,3.947,3.947,0,0,0,.788-.6q.106-.1.34-.291a4.555,4.555,0,0,1,.7.778l.072.246a4.544,4.544,0,0,1-1.764,1.775,4.834,4.834,0,0,1-2.427.645,3.393,3.393,0,0,1-2.7-1.209A5.675,5.675,0,0,1,61.4,25.895l.072-3.605V16.454l-.555-.04-1.29.04-.211-.1a.683.683,0,0,1-.106-.344q0-.122.036-.913ZM72.831,6.175a2.638,2.638,0,0,1,.632-1.815,2.053,2.053,0,0,1,1.612-.709,2.29,2.29,0,0,1,1.755.749,2.412,2.412,0,0,1,.7,1.693,3.74,3.74,0,0,1-.276,1.394,2.428,2.428,0,0,1-.878,1.119,2.116,2.116,0,0,1-1.227.421,2.092,2.092,0,0,1-1.585-.841,2.972,2.972,0,0,1-.731-2.01Zm-2.508,24.47-.036-1.323,2.024-.307a1.066,1.066,0,0,0,.618-.421,2.833,2.833,0,0,0,.17-1.241V27.13q0-.246.027-.891t.027-1.137q0-.389-.052-1.5l.027-1.026-.027-.965.052-3.343a8.311,8.311,0,0,0-.109-1.323,1.553,1.553,0,0,0-.72-.529,6.381,6.381,0,0,0-1.811-.328V14.936a7.793,7.793,0,0,0,3.242-.883,7.636,7.636,0,0,0,2.058-1.738h1.2q.072,2.545.072,6.613L76.958,27.3a15.366,15.366,0,0,0,.072,1.558,9.95,9.95,0,0,0,1.811.452,3.479,3.479,0,0,1,.77.206l-.061,1.122q-.482.021-.715.021-.267,0-.822-.04-1.822-.1-4.879-.1-.876,0-1.7.071t-1.125.063Zm25.252-14.95a8.343,8.343,0,0,1,1.712,2.923,9.628,9.628,0,0,1,.564,3.108,11.23,11.23,0,0,1-.736,4.431,8.2,8.2,0,0,1-2.993,3.753,7.9,7.9,0,0,1-4.374,1.209,7.753,7.753,0,0,1-4.741-1.436,8.449,8.449,0,0,1-2.78-3.259,10.916,10.916,0,0,1-.831-4.518,10.031,10.031,0,0,1,.394-2.754,8.417,8.417,0,0,1,1.084-2.41A8.31,8.31,0,0,1,84.39,15.02,7.97,7.97,0,0,1,86.808,13.6a8.979,8.979,0,0,1,2.925-.426,7.164,7.164,0,0,1,5.841,2.513ZM85.78,22.784q.161,2.547.226,2.939a8.236,8.236,0,0,0,.736,2.362,3.067,3.067,0,0,0,1.132,1.129,3.469,3.469,0,0,0,1.881.492,2.9,2.9,0,0,0,2.2-.955,6.011,6.011,0,0,0,1.29-2.989,26.631,26.631,0,0,0,.254-4.386,9.7,9.7,0,0,0-1.075-5.29,3.378,3.378,0,0,0-5.114-.667,4.97,4.97,0,0,0-1.266,2.608,31,31,0,0,0-.267,4.745Zm14.111,6.83a3.311,3.311,0,0,1,.86-.328,4.036,4.036,0,0,0,1.146-.309.889.889,0,0,0,.358-.452,9.2,9.2,0,0,0,.106-1.807v-1.78l.018-1.457-.052-2.156v-1.3a10.235,10.235,0,0,0-.179-2.116,1.183,1.183,0,0,0-.453-.616A5.465,5.465,0,0,0,100,16.5l-.018-.984a2.5,2.5,0,0,1,.421-.114q.188-.032,1.442-.4a12.725,12.725,0,0,0,1.27-.579l.288-.185a5.789,5.789,0,0,1,.482-.41,7.6,7.6,0,0,0,1.29-1.495l.967-.082-.036,2.317q-.032.276-.036.555,0,.164.036.944a10.286,10.286,0,0,1,2.7-2.05,7.029,7.029,0,0,1,3.02-.759,4.768,4.768,0,0,1,2.943.955,4.431,4.431,0,0,1,1.664,2.209,20.567,20.567,0,0,1,.394,5.055l-.072,6.7a1.861,1.861,0,0,0,.143.794,2.908,2.908,0,0,0,.985.291l.878.193a1.215,1.215,0,0,1,.161.645q0,.241-.018.667l-3.509-.291-1.039.04h-.824l-2.364.185h-.584q-.018-.265-.018-.4,0-.387.036-.772.254-.061,1.254-.206a3.922,3.922,0,0,0,.591-.145q.358-.164.412-.328A4.091,4.091,0,0,0,113,27.532q0-1.725-.018-2.645L113,22.506a17.558,17.558,0,0,0-.482-5.4,2.188,2.188,0,0,0-2.038-1.539,4.32,4.32,0,0,0-2.072.579,9.424,9.424,0,0,0-2.214,1.778l-.036.349.036,1.293-.036,1.375.072,3.283-.036.513a14.783,14.783,0,0,0,.226,3.775,3.54,3.54,0,0,0,1.789.96,3.719,3.719,0,0,1,.054.513,3.542,3.542,0,0,1-.127.759q-.557.021-.933.021a7.858,7.858,0,0,1-1.184-.145l-1.92-.048q-1.435,0-4.145.145a1.257,1.257,0,0,1-.072-.423q0-.188.014-.68ZM142.581,5.807q.2,1.164.288,2.349.161,1.754.161,2.553a2.928,2.928,0,0,1-.127.759,5.722,5.722,0,0,1-1.309-.164,21.447,21.447,0,0,0-1.915-3.015,8.716,8.716,0,0,0-2.669-1.949,6.136,6.136,0,0,0-2.757-.6,6.515,6.515,0,0,0-5.264,3.074,15.316,15.316,0,0,0-2.275,9.142,17.538,17.538,0,0,0,.885,5.534,9.228,9.228,0,0,0,2.656,4.211,6.186,6.186,0,0,0,4.172,1.526,9.644,9.644,0,0,0,2.47-.347,1.98,1.98,0,0,0,1.075-.653,1.852,1.852,0,0,0,.38-.981,30,30,0,0,0,.143-3.37q0-2.116-.052-2.91a1.026,1.026,0,0,0-.242-.4,3.361,3.361,0,0,0-.724-.291l-1.585-.489a1.084,1.084,0,0,1-.645-.349,3.277,3.277,0,0,1-.036-.389,3.6,3.6,0,0,1,.127-.794,1.541,1.541,0,0,1,.453-.124q1.952,0,3.385.145.5.037,1.093.037l2.83-.04,1.2-.04a11.441,11.441,0,0,1,1.2.04q.018.529.018.9a1.3,1.3,0,0,1-.127.513,6.542,6.542,0,0,1-1.039.529,3.516,3.516,0,0,0-.824.418,1.01,1.01,0,0,0-.2.511q-.052.347-.052,2.436,0,2.415-.018,2.886-.072,1.516-.072,1.719a1.545,1.545,0,0,1-.179.942,7.769,7.769,0,0,1-3.106,1.3,22.648,22.648,0,0,1-6.061.725,17.624,17.624,0,0,1-4.2-.434,9.215,9.215,0,0,1-3.036-1.3,11.754,11.754,0,0,1-2.893-2.809,11.983,11.983,0,0,1-1.791-3.55,18.452,18.452,0,0,1-.829-5.391,16.618,16.618,0,0,1,1.218-6.113,13.4,13.4,0,0,1,2.518-4.031,11.687,11.687,0,0,1,4.055-2.862,13.061,13.061,0,0,1,5.3-1.058,10.4,10.4,0,0,1,1.164.1,12.965,12.965,0,0,1,4.075.627,12.416,12.416,0,0,1,3.154,1.481Zm4.3-1.722a17.251,17.251,0,0,1,1.77.185,21.026,21.026,0,0,0,3.276.225q.645,0,3.312-.124,4-.188,7.218-.188l3.242-.04a24.6,24.6,0,0,1,3.224.307,1.764,1.764,0,0,1,.321,1.108V9.791l.036.841q0,.124-.018.37l-.736.04q-.143,0-.609-.04-.161-.41-.43-1.209l-.715-1.455a9.591,9.591,0,0,0-1.146-1.883,4.227,4.227,0,0,0-1.143-.156l-1.094-.1q-1.666-.164-3.582-.164-2.185,0-3.9.082-.048.5-.048,4.031l.018,3.439v2.584a5.8,5.8,0,0,0,.772.061q3.213,0,4.578-.145a3.983,3.983,0,0,0,1.687-.4,2.118,2.118,0,0,0,.575-.891q.388-1.486.632-3.015l.226-.021,1.039.021q.072,1.825.072,2.769,0,2.153-.027,2.769t-.027.965q0,.553.052,1.775t.052,1.815v.458h-1.272q-.072-.328-.269-1.354a9.174,9.174,0,0,0-.645-2.381,1.309,1.309,0,0,0-.718-.553,12.425,12.425,0,0,0-2.669-.145,37.052,37.052,0,0,0-4.075.164v.688q0,2.441.072,4.055l-.036,4.431a1.139,1.139,0,0,0,.482,1.058,12.762,12.762,0,0,0,4.494.434,17.811,17.811,0,0,0,4.227-.434,4.107,4.107,0,0,0,2.112-1.375,10.826,10.826,0,0,0,2.024-3.857A8.646,8.646,0,0,1,170.14,23q.2,0,.591.021-.052.513-.088.862l-.106.616-.641,3.886-.317,2.338q-1.164.061-1.847.061-1.005,0-5.359-.206-3.063-.145-7.385-.145-2.151,0-5.286.206h-.758l-2.169.082V29.312a9.832,9.832,0,0,1,1.358-.225,7.733,7.733,0,0,0,2.579-.656,4.837,4.837,0,0,0,.2-1.5q0-.349-.018-1.19l.018-.635-.052-7.732.018-2.317-.091-3.283L150.8,9.46,150.652,6.9q-.009-.206-.036-.41a.835.835,0,0,0-.537-.291q-.2-.04-.537-.124a10.3,10.3,0,0,0-1.97-.291q-.34-.021-.788-.082Zm26.862,12.943a16,16,0,0,1,.858-5.108,12.453,12.453,0,0,1,1.755-3.383A12.147,12.147,0,0,1,179.178,5.8a11.843,11.843,0,0,1,3.471-1.722,13.944,13.944,0,0,1,3.955-.529,12.562,12.562,0,0,1,6.459,1.587,11.716,11.716,0,0,1,4.317,4.338,14.713,14.713,0,0,1,2.038,7.446,15.056,15.056,0,0,1-3.446,9.954,11.752,11.752,0,0,1-9.583,4.142,16.946,16.946,0,0,1-2.846-.225,9.015,9.015,0,0,1-1.755-.452q-1.358-.513-1.517-.6a15.365,15.365,0,0,1-3.131-2.608,13.4,13.4,0,0,1-2-3.015,19.2,19.2,0,0,1-1.021-3.407A16.089,16.089,0,0,1,173.745,17.028ZM185.929,5.585a4.712,4.712,0,0,0-2.755.831,6.143,6.143,0,0,0-1.811,1.836,12.074,12.074,0,0,0-1.453,3.722,24.054,24.054,0,0,0-.423,4.907,17.584,17.584,0,0,0,.127,2.523q.036.246.109.841a12.894,12.894,0,0,0,.38,2.214,24.615,24.615,0,0,0,1.091,3.219,8.079,8.079,0,0,0,1.585,2.071,5.02,5.02,0,0,0,1.555.976,5.1,5.1,0,0,0,2.038.434,6.629,6.629,0,0,0,3.586-1.037,7.119,7.119,0,0,0,2.656-3.518,17.525,17.525,0,0,0,1-6.462q0-1.64-.2-4.452l-.091-.389q-.109-.415-.179-.841a9.32,9.32,0,0,0-2.529-5.129,6.56,6.56,0,0,0-4.7-1.759Z" transform="translate(-0.762 64.837)" fill="#fff"/><g transform="translate(157.656)" clip-path="url(#c)"><g transform="translate(0 99.955)" fill="#010080" stroke="#010080" stroke-width="0.572"><rect width="139.107" height="30.422" stroke="none"/><rect x="0.286" y="0.286" width="138.535" height="29.85" fill="none"/></g><g transform="translate(54.127 26.83)"><path d="M22.5,79.862,3.064,14.8,12.742,1.211,26.1,7.258l6.153,70.1Z" transform="translate(-2.353 -0.341)" fill="#707070"/><path d="M13.331,2.606,4.167,15.48,23.3,79.546l8.651-2.217L25.892,8.293,13.331,2.606m-.4-1.738L27.073,7.28,33.32,78.464l-10.851,2.78L2.743,15.181Z" transform="translate(-2.743 -0.868)" fill="#707070"/><g transform="translate(10.403 0.214)"><path d="M7.3,30.576,5.79,24.984.423.281l12.241,5.5Z" transform="translate(0.478 0.912)"/><path d="M1.828,2.191,6.892,25.513,7.73,28.6,12.412,6.947,1.828,2.191M.017-.19l13.9,6.243L7.866,33.993,5.674,25.9Z" transform="translate(-0.017 0.19)"/></g><path d="M0,0,15.716,52.6l-.548-.447" transform="translate(0.883 13.009)" fill="none" stroke="#fff" stroke-width="1.142"/></g><g transform="translate(75.385 0.288)"><g transform="translate(0.492 0)" opacity="0.83"><path d="M14.756,105.677.891,22.005,35.059,1.016,59.82,18.99,31.027,88.684Z" transform="translate(-0.183 -0.175)" fill="#707070"/><path d="M35.421,2.362,1.987,22.9l13.568,81.878L30.9,88.752,59.4,19.767,35.421,2.362M35.473.685,61.017,19.227l-29.078,70.4L14.733,107.594.572,22.126Z" transform="translate(-0.572 -0.685)" fill="#707070"/></g><g transform="translate(0 18.256) rotate(-27.975)" opacity="0.7"><path d="M7.271,13.135.164,4.62,34.488,1.171,26.818,5.122Z" transform="translate(1.417 1.217)"/><path d="M32.417,3.439,2.98,6.4l5.948,7.132L28.037,5.7l4.38-2.256m6.976-2.1L28.434,6.984,8.45,15.177.188,5.275Z" transform="translate(0 0)"/></g></g><g transform="translate(104.885 29.171)"><path d="M12.231,10.009,39.589,4.134,28.475,28.128.536,77.7Z" transform="translate(-0.536 6.151)" fill="#888"/><g transform="translate(0.156)"><path d="M11.608,16.041,1.273-.618,29.55,6.789,36.568,9.4Z" transform="translate(0.203 1.747)" fill="#050505"/><path d="M3.559,1.2,12.687,15.91,35.019,9.964l-4.827-1.8L3.559,1.2M.606-1.064,30.527,6.771l9.205,3.439L12.148,17.542Z" transform="translate(-0.606 1.064)" fill="#050505"/></g><path d="M2.89,1.044,15.713,16.222,3.248,84.068l-.1-.09Z" transform="translate(-2.736 1.405)" fill="#fff"/></g><g transform="translate(103.699 59.392)"><g transform="translate(0 5.796)"><path d="M6.239,49.884.285,46.919V.642L15.576,16.624Z" transform="translate(0.346 0.99)" fill="#707070"/><path d="M1.266,3.283v44.15L6.2,49.89l9-32.057L1.266,3.283M0,0,16.649,17.392,6.975,51.845,0,48.382Z" fill="#707070"/></g><g transform="translate(6.09 12.784)"><path d="M-4.21,40.769l9.851-36.7,9.586-6.4L4.59,35.9Z" transform="translate(5.24 3.902)" fill="#010101"/><path d="M14.689.185,6.734,5.51-2.612,40.341l7.245-4.013L14.689.185m2.2-3.14L5.674,37.363-4.675,43.092,5.674,4.542Z" transform="translate(4.675 2.955)" fill="#010101"/></g><g transform="translate(15.538)"><path d="M.514,20.053,2.431.659,9.26,9.28l1.834,2.555Z" transform="translate(0.263 1.013)" fill="#707070"/><path d="M3.328,3.346,1.73,19.574,10.591,12.7,9.208,10.766,3.321,3.346M2.386,0l7.779,9.819,2.282,3.174L.163,22.55Z" transform="translate(-0.163)" fill="#707070"/></g><path d="M.009,5.864,19.416,0,15.841,22.378,6.855,13.554Z" transform="translate(0.011)" fill="#fff"/></g><path d="M4.686-1.142,29.852,24.085l-7.7,10.091L-.9,19.461Z" transform="translate(88.139 83.888)"/><g transform="translate(89.06 82.571)"><path d="M20.242,28.842-.558,16.206,4.249-.654,26.7,20.772Z" transform="translate(1.316 1.894)" fill="#fff"/><path d="M4.987,1.337.627,16.6l19.9,12.086L26.2,21.6,4.987,1.337M4.355-1.142l23.672,22.6-7.245,9.038L-.9,17.313Z" transform="translate(0.899 1.142)" fill="#707070"/></g><g transform="translate(80.934 52.006)"><path d="M0-3.044,7.589,6.6v34.89L4.754,46.341,0,41.492Z" transform="translate(0 14.3)" fill="#fff"/><g transform="translate(7.589 10.171)"><path d="M.285,42.908V11.971L6.7,4.977l.018-.021.016-.021L10,.755,8.182,36.5Z" transform="translate(0.346 1.274)" fill="#707070"/><path d="M9.613,4.015,7.553,6.66,7.519,6.7l-.036.04L1.266,13.509V42.735l6.658-5.391,1.7-33.329m1.472-4.06L9.142,38.117,0,45.544V12.887L6.613,5.679Z" transform="translate(0 0.045)" fill="#707070"/></g><g transform="translate(7.589)"><path d="M.285,20.906V.631l9.522,9.581-3.72,4.124h0Z" transform="translate(0.346 0.97)" fill="#0f0f0f"/><path d="M1.266,3.2V20.13l4.72-5.343h0l3.235-3.579L1.266,3.2M0,0,11.093,11.155l-4.22,4.671L0,23.608Z" fill="#0f0f0f"/></g><path d="M6.521,20.016l-3.548-5.88h0L.356,9.9,6.521.831Z" transform="translate(0.432 1.277)" fill="#707070"/><path d="M6.323,4.216,1.585,11.2,3.917,14.99h0l2.4,3.968V4.216M7.589,0V23.608l-4.7-7.782L0,11.155Z" fill="#707070"/></g><g transform="translate(41.127 59.159)"><g transform="translate(0 0)"><path d="M29.185,55.142H23.122L1.2,16.081,7.222,3.048H18.1l16.339,43.8Z" transform="translate(-0.469 -2.329)" fill="#707070"/><path d="M8.006,4.214,2.332,16.479,23.869,54.855h5.4l4.865-7.671L18.094,4.214H8.006m-.761-1.45H18.929L35.574,47.385l-5.66,8.925H23.179L.87,16.548Z" transform="translate(-0.87 -2.764)" fill="#707070"/></g><g transform="translate(0 10.644)"><path d="M21.6,40.676.471,1.914l14.175-2.5L33.315,32.3,28.459,37.65Z" transform="translate(0.572 1.382)" fill="#fff"/><path d="M14.913.688,2.09,2.944,22.438,40.267l6.246-2.756,4.39-4.841L14.913.688M15.529-.9,34.707,32.874l-5.327,5.872-7.46,3.3L0,1.846Z" transform="translate(0 0.899)" fill="#fff"/></g><g transform="translate(16.235 0.233)"><path d="M17.758,36.285l-3.776-5.854L2.791,9.6,4.15.97Z" transform="translate(-2.126 1.49)" fill="#020202"/><path d="M4.771,4.912,3.82,10.943,14.87,31.512l.371.574L4.771,4.912M4.261,0,21.015,43.457,13.822,32.326,2.491,11.234Z" transform="translate(-2.491)" fill="#020202"/></g></g><g transform="translate(47.856 84.743)"><g transform="translate(0 0.545)"><path d="M3.348,26.142V.227L9.032,9.083Z" transform="translate(-2.716 1.979)" fill="#707070"/><path d="M4.326,3.772V23.55L8.663,10.531,4.326,3.772M3.062-.642l7.03,10.951-7.03,21.1Z" transform="translate(-3.062 0.642)" fill="#707070"/></g><path d="M0,33.329V0" transform="translate(0.833)" fill="none" stroke="#fefbff" stroke-width="1.142"/></g><line x2="10.118" y2="26.076" transform="translate(34.777 89.089)" fill="none" stroke="#fefbff" stroke-width="2.285"/></g></g></g></g></svg>