<svg xmlns="http://www.w3.org/2000/svg" xmlns:xlink="http://www.w3.org/1999/xlink" viewBox="0 0 278.035 123.799"><defs><style>.a,.ab,.l,.n,.t{fill:#fff;}.a{stroke:#707070;}.b{clip-path:url(#a);}.c,.e{fill:#010080;}.d{clip-path:url(#b);}.e{stroke:#010080;}.f,.h,.x{fill:#707070;}.g,.q,.r,.w{fill:none;}.g{stroke:#fff;}.g,.q{stroke-width:2px;}.h{opacity:0.83;}.i{opacity:0.7;}.j{fill:#888;}.k,.z{fill:#050505;}.m{fill:#010101;}.aa,.o{fill:#0f0f0f;}.ac,.p{fill:#020202;}.q,.r{stroke:#fefbff;}.r{stroke-width:4px;}.s{clip-path:url(#c);}.t{stroke:#000;}.u{fill:#000082;}.aa,.ab,.ac,.v,.x,.y,.z{stroke:none;}</style><clipPath id="a"><rect class="a" width="276" height="119" transform="matrix(1, -0.017, 0.017, 1, 1287, 515.391)"/></clipPath><clipPath id="b"><rect class="a" width="115" height="92" transform="translate(744 363)"/></clipPath><clipPath id="c"><rect class="a" width="87.88" height="97.547" transform="translate(434 585)"/></clipPath></defs><g class="b" transform="translate(-1287 -510.574)"><path class="c" d="M18.323,7.767a15.262,15.262,0,0,1,.227,1.621q.127,1.211.127,1.763a1.789,1.789,0,0,1-.1.524,5.151,5.151,0,0,1-1.034-.113A14.707,14.707,0,0,0,16.029,9.48a6.93,6.93,0,0,0-2.11-1.345,5.446,5.446,0,0,0-2.181-.411A5.34,5.34,0,0,0,7.576,9.847q-1.8,2.122-1.8,6.31a10.712,10.712,0,0,0,.7,3.82,6.334,6.334,0,0,0,2.1,2.907,5.336,5.336,0,0,0,3.3,1.054,8.667,8.667,0,0,0,1.954-.24,1.619,1.619,0,0,0,.85-.451,1.19,1.19,0,0,0,.3-.677,18.1,18.1,0,0,0,.113-2.326q0-1.466-.042-2.016a.7.7,0,0,0-.191-.275,2.894,2.894,0,0,0-.573-.2l-1.26-.338a.9.9,0,0,1-.51-.241,1.987,1.987,0,0,1-.028-.269,2.2,2.2,0,0,1,.1-.552,1.36,1.36,0,0,1,.354-.085q1.543,0,2.676.1.4.025.864.025l2.237-.028.949-.028q.17-.014.949.028.014.368.014.623a.808.808,0,0,1-.1.354,5.5,5.5,0,0,1-.821.361,2.953,2.953,0,0,0-.651.288.649.649,0,0,0-.156.353q-.042.24-.042,1.682,0,1.668-.014,1.993-.057,1.046-.057,1.187,0,.523-.142.65a6.65,6.65,0,0,1-2.457.9,20.39,20.39,0,0,1-4.793.5,15.89,15.89,0,0,1-3.321-.3,7.878,7.878,0,0,1-2.4-.9A8.857,8.857,0,0,1,3.4,22.125a7.927,7.927,0,0,1-1.416-2.45,11.258,11.258,0,0,1-.651-3.724,10.22,10.22,0,0,1,.963-4.22,9.169,9.169,0,0,1,1.99-2.782A9.346,9.346,0,0,1,7.491,6.974a11.641,11.641,0,0,1,4.191-.736q.283,0,.92.071a11.63,11.63,0,0,1,3.229.432A10.52,10.52,0,0,1,18.323,7.767ZM22.359,17.4a6.319,6.319,0,0,1,.651-1.6A7.258,7.258,0,0,1,24.7,13.985a5.529,5.529,0,0,1,1.621-.865,5.758,5.758,0,0,1,1.515-.269,9.17,9.17,0,0,1,2.152.205,4.174,4.174,0,0,1,1.374.587,6.645,6.645,0,0,1,1.274,1.117,4.741,4.741,0,0,1,.786,1.33,5.4,5.4,0,0,1,.333,1.853l-1.572-.027q-.651,0-2.86-.124-.821-.071-1.133-.071-.1,0-1.529.028H25.446a2.468,2.468,0,0,0-.028.341,7.321,7.321,0,0,0,.184,1.583,5.062,5.062,0,0,0,.552,1.462,4.062,4.062,0,0,0,.913,1.086,3.574,3.574,0,0,0,1.126.653l.821.27a9.489,9.489,0,0,0,1.458-.071,6.42,6.42,0,0,0,1.2-.361,7,7,0,0,0,1.253-.743q.51.368.85.666a8.155,8.155,0,0,1-2.584,1.99,7.079,7.079,0,0,1-2.995.616,6.939,6.939,0,0,1-1.827-.2,5.55,5.55,0,0,1-1.713-.78,5.235,5.235,0,0,1-1.317-1.3,6,6,0,0,1-.821-1.6,5.879,5.879,0,0,1-.354-1.73A11.406,11.406,0,0,1,22.359,17.4Zm8.227-.6a4.174,4.174,0,0,0-.312-1.522,2.4,2.4,0,0,0-.92-1.131,2.169,2.169,0,0,0-2.974.43,3.616,3.616,0,0,0-.864,2.266l3.229.028q.312,0,.878-.042.411-.039.581-.039Q30.331,16.791,30.586,16.8Zm5.438,4.149a3.568,3.568,0,0,1,.623-.085q.1,0,.3.014l.127.142a14.8,14.8,0,0,0,1.005,1.628,5.934,5.934,0,0,0,.977.935,4.391,4.391,0,0,0,1.02.467,2.878,2.878,0,0,0,.991.17,2.207,2.207,0,0,0,1.529-.573,1.662,1.662,0,0,0,.637-1.239,1.243,1.243,0,0,0-.241-.772,2.418,2.418,0,0,0-.963-.63,15.007,15.007,0,0,0-1.777-.51q-1.423-.354-1.72-.467a3.884,3.884,0,0,1-1.182-.708,3.153,3.153,0,0,1-.786-1.02,3.458,3.458,0,0,1-.368-1.388,4.29,4.29,0,0,1,.312-1.763,3.549,3.549,0,0,1,2.117-1.933,4.813,4.813,0,0,1,1.777-.326,13.441,13.441,0,0,1,2.365.184,6.094,6.094,0,0,1,1.728.552q.085.326.241,1.5t.156,1.388a.607.607,0,0,1-.042.212,2.159,2.159,0,0,1-.609.113q-.142,0-.411-.028-.127-.2-.34-.595a5.223,5.223,0,0,0-1.395-1.777,2.743,2.743,0,0,0-1.65-.517,2.447,2.447,0,0,0-1.643.566,1.393,1.393,0,0,0-.481,1.119,1.356,1.356,0,0,0,.5.949,3.391,3.391,0,0,0,1.723.75,14.183,14.183,0,0,1,2.739.821,4.125,4.125,0,0,1,1.8,1.4A3.384,3.384,0,0,1,45.6,21.4a3.509,3.509,0,0,1-1.239,2.74,5.3,5.3,0,0,1-3.618,1.1q-.312,0-1.628-.142a10.512,10.512,0,0,1-1.4-.283q-.2-.057-1.034-.411a.518.518,0,0,1-.219-.205,6.96,6.96,0,0,1-.191-1.182Q36.038,21.29,36.023,20.95Zm11.625-6.774a8.725,8.725,0,0,0,2.414-1.386,8.9,8.9,0,0,0,1.593-2.206h.793a2.364,2.364,0,0,1,.127.779q0,.736-.014,1.147l-.042.835q0,.071.014.326l.326.014q.071,0,1.331-.057.1,0,1.062-.028a3.114,3.114,0,0,1,.085.673,3.472,3.472,0,0,1-.1.757,4.33,4.33,0,0,1-.708.085,3.475,3.475,0,0,1-.453-.057h-.736l-.255-.014-.68.042L52.378,20.5a13.452,13.452,0,0,0,.064,1.961,1.905,1.905,0,0,0,.333.743,1.654,1.654,0,0,0,.722.156,1.686,1.686,0,0,0,.566-.071,3.121,3.121,0,0,0,.623-.41q.085-.071.269-.2a3.339,3.339,0,0,1,.552.537l.057.17a3.4,3.4,0,0,1-1.395,1.225,4.26,4.26,0,0,1-1.919.446,2.868,2.868,0,0,1-2.138-.834,3.563,3.563,0,0,1-.821-2.588l.057-2.489v-4.03l-.439-.028-1.02.028-.184-.071a.431.431,0,0,1-.085-.238Q47.621,14.723,47.649,14.177ZM58.312,8.022a1.684,1.684,0,0,1,.5-1.253,1.739,1.739,0,0,1,1.274-.489,1.952,1.952,0,0,1,1.388.517,1.566,1.566,0,0,1,.552,1.168,2.3,2.3,0,0,1-.219.963,1.736,1.736,0,0,1-.694.772,1.837,1.837,0,0,1-.97.29,1.736,1.736,0,0,1-1.253-.581A1.905,1.905,0,0,1,58.312,8.022ZM56.329,24.915l-.028-.92,1.6-.212a.856.856,0,0,0,.489-.29,1.729,1.729,0,0,0,.135-.857v-.156q0-.17.021-.616t.021-.786q0-.269-.042-1.034l.021-.708-.021-.666.042-2.308a5.025,5.025,0,0,0-.086-.906,1.233,1.233,0,0,0-.57-.368,5.708,5.708,0,0,0-1.44-.227v-.793a6.868,6.868,0,0,0,2.563-.609,5.915,5.915,0,0,0,1.628-1.2h.949q.057,1.756.057,4.56l-.1,5.777a9.272,9.272,0,0,0,.057,1.076,8.82,8.82,0,0,0,1.43.312,3.074,3.074,0,0,1,.609.142l-.028.779q-.382.014-.565.014-.212,0-.65-.028-1.442-.071-3.858-.071-.692,0-1.342.05T56.329,24.915ZM76.307,14.592a5.65,5.65,0,0,1,1.354,2.018,5.9,5.9,0,0,1,.446,2.145,6.864,6.864,0,0,1-.581,3.059,5.877,5.877,0,0,1-2.367,2.591,6.949,6.949,0,0,1-3.459.835,6.778,6.778,0,0,1-3.749-.991A6.133,6.133,0,0,1,65.753,22a6.7,6.7,0,0,1-.659-3.129,6.111,6.111,0,0,1,.312-1.9,5.486,5.486,0,0,1,.858-1.664,6.068,6.068,0,0,1,1.2-1.189,6.563,6.563,0,0,1,1.907-.97,8.059,8.059,0,0,1,2.318-.29A6.077,6.077,0,0,1,76.307,14.592Zm-7.744,4.893q.127,1.758.184,2.028a5.179,5.179,0,0,0,.581,1.631,2.3,2.3,0,0,0,.892.78,3.058,3.058,0,0,0,1.487.34,2.46,2.46,0,0,0,1.742-.659,3.908,3.908,0,0,0,1.02-2.063,16.084,16.084,0,0,0,.2-3.02,5.987,5.987,0,0,0-.85-3.651A2.717,2.717,0,0,0,71.58,13.8a2.685,2.685,0,0,0-1.805.61,3.28,3.28,0,0,0-1,1.8A18.72,18.72,0,0,0,68.563,19.485ZM79.722,24.2a2.861,2.861,0,0,1,.68-.227,3.563,3.563,0,0,0,.906-.213.636.636,0,0,0,.283-.312,5.558,5.558,0,0,0,.085-1.248V20.972l.014-1.007-.042-1.489v-.893a6.194,6.194,0,0,0-.142-1.46.835.835,0,0,0-.354-.425,4.633,4.633,0,0,0-1.345-.553l-.014-.68a2.207,2.207,0,0,1,.333-.078q.149-.021,1.14-.276.779-.283,1.005-.4.071-.042.227-.127a4.474,4.474,0,0,1,.382-.283A5.528,5.528,0,0,0,83.9,12.27l.765-.057-.028,1.6a3.455,3.455,0,0,0-.028.383q0,.113.028.651a8.126,8.126,0,0,1,2.135-1.416,6.217,6.217,0,0,1,2.389-.524,4.15,4.15,0,0,1,2.333.66,3.142,3.142,0,0,1,1.315,1.525,12.445,12.445,0,0,1,.311,3.49l-.057,4.625a1.141,1.141,0,0,0,.113.539,2.554,2.554,0,0,0,.779.2l.694.133a.756.756,0,0,1,.127.446q0,.167-.014.46l-2.775-.2-.821.028h-.651l-1.869.127h-.481q-.014-.178-.014-.274,0-.247.029-.534.2-.042.991-.142a3.479,3.479,0,0,0,.467-.1q.283-.114.326-.227a2.484,2.484,0,0,0,.113-.922q0-1.191-.014-1.829l.014-1.645a10.639,10.639,0,0,0-.381-3.729,1.72,1.72,0,0,0-1.61-1.063,3.8,3.8,0,0,0-1.638.4,7.37,7.37,0,0,0-1.751,1.227l-.028.241.028.892-.028.949.057,2.266-.029.354a8.944,8.944,0,0,0,.186,2.606,2.945,2.945,0,0,0,1.414.662,2.255,2.255,0,0,1,.043.354,2.163,2.163,0,0,1-.1.524q-.44.014-.738.014a7.08,7.08,0,0,1-.937-.1l-1.518-.032q-1.135,0-3.278.1a.77.77,0,0,1-.057-.293Q79.708,24.539,79.722,24.2ZM113.479,7.767a15.262,15.262,0,0,1,.227,1.621q.127,1.211.127,1.763a1.789,1.789,0,0,1-.1.524,5.151,5.151,0,0,1-1.034-.113,14.707,14.707,0,0,0-1.515-2.082,6.93,6.93,0,0,0-2.11-1.345,5.446,5.446,0,0,0-2.181-.411,5.34,5.34,0,0,0-4.163,2.122q-1.8,2.122-1.8,6.31a10.712,10.712,0,0,0,.7,3.82,6.334,6.334,0,0,0,2.1,2.907,5.336,5.336,0,0,0,3.3,1.054,8.667,8.667,0,0,0,1.954-.24,1.619,1.619,0,0,0,.85-.451,1.19,1.19,0,0,0,.3-.677,18.1,18.1,0,0,0,.113-2.326q0-1.466-.042-2.016a.7.7,0,0,0-.191-.275,2.894,2.894,0,0,0-.573-.2l-1.26-.338a.9.9,0,0,1-.51-.241,1.987,1.987,0,0,1-.028-.269,2.2,2.2,0,0,1,.1-.552,1.36,1.36,0,0,1,.354-.085q1.543,0,2.676.1.4.025.864.025l2.237-.028.949-.028q.17-.014.949.028.014.368.014.623a.808.808,0,0,1-.1.354,5.5,5.5,0,0,1-.821.361,2.953,2.953,0,0,0-.651.288.649.649,0,0,0-.156.353q-.042.24-.042,1.682,0,1.668-.014,1.993-.057,1.046-.057,1.187,0,.523-.142.65a6.65,6.65,0,0,1-2.457.9,20.39,20.39,0,0,1-4.793.5,15.89,15.89,0,0,1-3.321-.3,7.878,7.878,0,0,1-2.4-.9,8.857,8.857,0,0,1-2.28-1.926,7.928,7.928,0,0,1-1.416-2.45,11.258,11.258,0,0,1-.651-3.724,10.22,10.22,0,0,1,.963-4.22,9.169,9.169,0,0,1,1.99-2.782,9.346,9.346,0,0,1,3.207-1.975,11.641,11.641,0,0,1,4.191-.736q.283,0,.92.071a11.63,11.63,0,0,1,3.229.432A10.52,10.52,0,0,1,113.479,7.767Zm3.4-1.189q.807.042,1.4.127a19.006,19.006,0,0,0,2.591.156q.51,0,2.62-.085,3.158-.127,5.707-.127l2.563-.028a22.209,22.209,0,0,1,2.549.212,1.1,1.1,0,0,1,.255.765v2.917l.028.581q0,.085-.014.255l-.581.028q-.113,0-.481-.028-.127-.283-.34-.835l-.566-1.005a6.528,6.528,0,0,0-.906-1.3,3.8,3.8,0,0,0-.906-.113q-.142-.014-.864-.071-1.317-.113-2.832-.113-1.728,0-3.087.057-.042.354-.042,2.79l.014,2.379v1.784a5.239,5.239,0,0,0,.61.042q2.54,0,3.619-.1a3.531,3.531,0,0,0,1.334-.276,1.462,1.462,0,0,0,.454-.616,19.472,19.472,0,0,0,.5-2.082l.184-.014.821.014q.057,1.26.057,1.912,0,1.487-.021,1.912t-.021.666q0,.382.042,1.225t.042,1.253v.312H130.6q-.057-.227-.213-.935a5.715,5.715,0,0,0-.511-1.643,1.03,1.03,0,0,0-.568-.382,11.236,11.236,0,0,0-2.1-.1q-2.143,0-3.221.113V16.7q0,1.685.057,2.8l-.028,3.059a.753.753,0,0,0,.382.736,11.5,11.5,0,0,0,3.554.3,16.06,16.06,0,0,0,3.342-.3,3.323,3.323,0,0,0,1.671-.949,7.208,7.208,0,0,0,1.6-2.662q.439-.042.722-.042.156,0,.467.014-.042.354-.07.595l-.084.425-.516,2.676-.251,1.614q-.921.042-1.46.042-.794,0-4.237-.142-2.423-.1-5.839-.1-1.7,0-4.181.142h-.6l-1.715.057v-.977a8.817,8.817,0,0,1,1.076-.156,6.843,6.843,0,0,0,2.039-.453,2.943,2.943,0,0,0,.156-1.034q0-.241-.014-.821l.014-.439-.042-5.338.014-1.6-.071-2.266.014-1.6-.127-1.756a2.693,2.693,0,0,0-.028-.283.692.692,0,0,0-.425-.2q-.156-.028-.425-.085a9.258,9.258,0,0,0-1.558-.2q-.269-.014-.623-.057Zm21.24,8.935a9.783,9.783,0,0,1,.679-3.526,8.271,8.271,0,0,1,1.387-2.336,9.154,9.154,0,0,1,2.236-1.89,9.968,9.968,0,0,1,2.745-1.189,12.536,12.536,0,0,1,3.127-.361,11.106,11.106,0,0,1,5.108,1.1,8.769,8.769,0,0,1,3.41,2.988,9.2,9.2,0,0,1,1.613,5.14A9.605,9.605,0,0,1,155.7,22.31a9.964,9.964,0,0,1-7.578,2.86,15.309,15.309,0,0,1-2.25-.156,7.981,7.981,0,0,1-1.387-.312q-1.076-.354-1.2-.411a11.931,11.931,0,0,1-2.476-1.8,9.264,9.264,0,0,1-1.585-2.082,12.035,12.035,0,0,1-.807-2.351A9.749,9.749,0,0,1,138.118,15.513Zm9.637-7.9a4.122,4.122,0,0,0-2.178.573,4.59,4.59,0,0,0-1.429,1.267A7.743,7.743,0,0,0,143,12.022a14.556,14.556,0,0,0-.339,3.391,10.611,10.611,0,0,0,.1,1.742q.028.17.085.581a7.878,7.878,0,0,0,.3,1.529,15.559,15.559,0,0,0,.863,2.223,5.736,5.736,0,0,0,1.259,1.43,4.1,4.1,0,0,0,1.23.673,4.535,4.535,0,0,0,1.612.3,5.817,5.817,0,0,0,2.835-.715,5.05,5.05,0,0,0,2.1-2.428,10.705,10.705,0,0,0,.792-4.46q0-1.133-.156-3.073l-.071-.269a5.709,5.709,0,0,1-.141-.581,6.166,6.166,0,0,0-2-3.54A5.644,5.644,0,0,0,147.755,7.611Z" transform="translate(1324 581)"/><g class="d" transform="translate(706 177)"><g class="e" transform="translate(744 432)"><rect class="v" width="110" height="21"/><rect class="w" x="0.5" y="0.5" width="109" height="20"/></g><g transform="translate(-93 118)"><g class="f" transform="translate(875 262)"><path class="v" d="M 20.72918128967285 56.41424942016602 L 5.364048480987549 11.50134086608887 L 13.01734066009521 2.119876623153687 L 23.57410430908203 6.29348087310791 L 28.43930435180664 54.68936157226563 L 20.72918128967285 56.41424942016602 Z"/><path class="x" d="M 13.17361259460449 2.719314575195313 L 5.927017211914063 11.60224914550781 L 21.05723762512207 55.82849884033203 L 27.89746475219727 54.2982177734375 L 23.10707473754883 6.646499633789063 L 13.17361259460449 2.719314575195313 M 12.861083984375 1.520442962646484 L 24.04113388061523 5.940464019775391 L 28.98114395141602 55.08050537109375 L 20.401123046875 57.00000381469727 L 4.801082611083984 11.40045166015625 L 12.861083984375 1.520442962646484 Z"/></g><g transform="translate(888 264)"><path class="v" d="M 6.180848121643066 21.40535545349121 L 4.982879638671875 17.54595375061035 L 0.7404938340187073 0.4936022758483887 L 10.41939353942871 4.289239883422852 L 6.180848121643066 21.40535545349121 Z"/><path class="y" d="M 1.459501266479492 1.312623977661133 L 5.464620113372803 17.41128921508789 L 6.126654624938965 19.54410934448242 L 9.828662872314453 4.594648361206055 L 1.459501266479492 1.312623977661133 M 0.02148818969726563 -0.3254432678222656 L 11.01012802124023 3.98382568359375 L 6.235048294067383 23.26656532287598 L 4.501098155975342 17.68044662475586 L 0.02148818969726563 -0.3254432678222656 Z"/></g><path class="g" d="M0,0,12.428,36.309,12,36" transform="translate(880.5 272.5)"/></g><g transform="translate(-4 -3)"><g class="h" transform="translate(807 365)"><path class="v" d="M 12.5246057510376 74.02776336669922 L 1.559911966323853 16.2673397064209 L 28.57926750183105 1.778725862503052 L 48.15924453735352 14.18581867218018 L 25.39054679870605 62.29708480834961 L 12.5246057510376 74.02776336669922 Z"/><path class="x" d="M 28.55826187133789 2.357337951660156 L 2.119556427001953 16.53458404541016 L 12.84894561767578 73.05541229248047 L 24.98077201843262 61.99406814575195 L 47.5181770324707 14.37152481079102 L 28.55826187133789 2.357337951660156 M 28.60027885437012 1.200103759765625 L 48.80028915405273 14.00009155273438 L 25.80028915405273 62.60012054443359 L 12.20026016235352 75.0001220703125 L 1.000240325927734 16.00009155273438 L 28.60027885437012 1.200103759765625 Z"/></g><g class="i" transform="matrix(0.883, -0.469, 0.469, 0.883, 812.052, 380.24)"><path class="v" d="M 4.029825210571289 7.232804775238037 L -1.785912394523621 0.8691887259483337 L 24.45539855957031 -0.1593804955482483 L 18.72317314147949 2.33762001991272 L 4.029825210571289 7.232804775238037 Z"/><path class="y" d="M 21.81735420227051 0.4443998336791992 L -0.6904964447021484 1.326630115509033 L 4.179862976074219 6.655806541442871 L 18.54396629333496 1.870312213897705 L 21.81735420227051 0.4443998336791992 M 27.09349250793457 -0.7631721496582031 L 18.90238189697266 2.804937839508057 L 3.879802703857422 7.809807777404785 L -2.881328582763672 0.4117379188537598 L 27.09349250793457 -0.7631721496582031 Z"/></g></g><g transform="translate(-124 12)"><path class="j" d="M10.187,11.292,31.819,7.236,23.031,23.8.938,58.022Z" transform="translate(950 371)"/><g class="k" transform="translate(950 373)"><path class="v" d="M 10.40070343017578 10.41878986358643 L 2.228713035583496 -1.082518815994263 L 24.58803749084473 4.028181076049805 L 30.13613891601563 5.831638336181641 L 10.40070343017578 10.41878986358643 Z"/><path class="z" d="M 3.396095275878906 -0.3027935028076172 L 10.61409759521484 9.855868339538574 L 28.27228927612305 5.751527309417725 L 24.45476531982422 4.510613441467285 L 3.396095275878906 -0.3027935028076172 M 1.06134033203125 -1.862241744995117 L 24.72130966186523 3.545748233795166 L 32 5.911738395690918 L 10.18732070922852 10.98171806335449 L 1.06134033203125 -1.862241744995117 Z"/></g><path class="l" d="M5.061,1.828,15.2,12.306,5.344,59.141l-.078-.062Z" transform="translate(946 371)"/></g><g transform="translate(-23 60)"><g class="f" transform="translate(849 348)"><path class="v" d="M 5.20861291885376 35.11824417114258 L 0.4999979734420776 33.07167053222656 L 0.4999979734420776 1.132652878761292 L 12.59049510955811 12.15851402282715 L 5.20861291885376 35.11824417114258 Z"/><path class="x" d="M 0.9999980926513672 2.265327453613281 L 0.9999980926513672 32.74380493164063 L 4.90159797668457 34.43961334228516 L 12.01612758636475 12.31142425537109 L 0.9999980926513672 2.265327453613281 M -1.9073486328125e-06 -3.814697265625e-06 L 13.16485786437988 12.00561714172363 L 5.515627861022949 35.79687881469727 L -1.9073486328125e-06 33.3995361328125 L -1.9073486328125e-06 -3.814697265625e-06 Z"/></g><g class="m" transform="translate(862 358)"><path class="v" d="M -7.368729114532471 25.66289138793945 L 0.4205975830554962 0.3333281576633453 L 7.999244213104248 -4.095052242279053 L -0.4111306369304657 22.30079078674316 L -7.368729114532471 25.66289138793945 Z"/><path class="y" d="M 7.127692222595215 -3.006671905517578 L 0.8412013053894043 0.6666717529296875 L -6.55373477935791 24.71374320983887 L -0.8222594261169434 21.94413948059082 L 7.127692222595215 -3.006671905517578 M 8.870786666870117 -5.18341064453125 L -3.635883331298828e-06 22.65744018554688 L -8.183713912963867 26.61203002929688 L -3.635883331298828e-06 0 L 8.870786666870117 -5.18341064453125 Z"/></g><g class="f" transform="translate(861 344)"><path class="v" d="M 0.9048842191696167 14.54212474822998 L 2.41649341583252 1.154755115509033 L 7.816593170166016 7.104981899261475 L 9.265793800354004 8.869157791137695 L 0.9048842191696167 14.54212474822998 Z"/><path class="x" d="M 2.78928804397583 2.309536933898926 L 1.523704528808594 13.5180139541626 L 8.531599044799805 8.763080596923828 L 7.438304901123047 7.432165145874023 L 2.78928804397583 2.309536933898926 M 2.043705940246582 1.9073486328125e-06 L 8.195256233215332 6.778231620788574 L 9.999996185302734 8.975221633911133 L 0.2860755920410156 15.56622123718262 L 2.043705940246582 1.9073486328125e-06 Z"/></g><path class="l" d="M.015,4.049,15.362,0,12.529,15.448l-7.1-6.092Z" transform="translate(849 344)"/></g><path d="M2.841-2l19.9,17.415-6.08,6.966L-1.581,12.221Z" transform="translate(814.56 422.12)"/><g class="n" transform="translate(816 422)"><path class="v" d="M 15.47171592712402 19.21673393249512 L -0.9750648736953735 10.4949312210083 L 2.825445652008057 -1.144207239151001 L 20.57623291015625 13.64814853668213 L 15.47171592712402 19.21673393249512 Z"/><path class="x" d="M 3.071857452392578 -0.2880020141601563 L -0.3691902160644531 10.25027465820313 L 15.36439228057861 18.59386444091797 L 19.85345268249512 13.69669151306152 L 3.071857452392578 -0.2880020141601563 M 2.579038619995117 -2.000398635864258 L 21.29900932312012 13.59961128234863 L 15.57903861999512 19.83960151672363 L -1.580930709838867 10.73959159851074 L 2.579038619995117 -2.000398635864258 Z"/></g><g transform="translate(-133 5)"><path class="l" d="M0-5.331,6,1.33V25.414L3.764,28.768,0,25.414Z" transform="translate(941 407)"/><g class="f" transform="translate(947 401)"><path class="v" d="M 0.5000049471855164 30.42067527770996 L 0.5000049471855164 9.063783645629883 L 5.573325157165527 4.235744953155518 L 5.587794780731201 4.221974849700928 L 5.601114749908447 4.207095146179199 L 8.184473037719727 1.322264671325684 L 6.743493556976318 25.99575042724609 L 0.5000049471855164 30.42067527770996 Z"/><path class="x" d="M 7.601841926574707 2.722385406494141 L 5.973594665527344 4.540655136108398 L 5.946945190429688 4.570404052734375 L 5.918015003204346 4.597944259643555 L 0.9999947547912598 9.278182983398438 L 0.9999947547912598 29.45347595214844 L 6.258350849151611 25.72675323486328 L 7.601841926574707 2.722385406494141 M 8.767085075378418 -0.07785415649414063 L 7.228634834289551 26.2647647857666 L -4.76837158203125e-06 31.38787460327148 L -4.76837158203125e-06 8.849384307861328 L 5.228634834289551 3.873544692993164 L 8.767085075378418 -0.07785415649414063 Z"/></g><g class="o" transform="translate(947 393.901)"><path class="v" d="M 0.5000049471855164 15.10032844543457 L 0.5000049471855164 1.10467803478241 L 8.029657363891602 7.718474388122559 L 5.087214946746826 10.56525039672852 L 5.085265159606934 10.56713008880615 L 5.08334493637085 10.56902980804443 L 0.5000049471855164 15.10032844543457 Z"/><path class="aa" d="M 0.9999947547912598 2.209356307983398 L 0.9999947547912598 13.90291023254395 L 4.731814861297607 10.21347045898438 L 4.735664844512939 10.2096700668335 L 4.739544868469238 10.20590972900391 L 7.292212009429932 7.73622989654541 L 0.9999947547912598 2.209356307983398 M -4.76837158203125e-06 0 L 8.767085075378418 7.700719833374023 L 5.434875011444092 10.92460060119629 L -4.76837158203125e-06 16.29776000976563 L -4.76837158203125e-06 0 Z"/></g><g class="f" transform="translate(941 393.901)"><path class="v" d="M 5.5 14.69699096679688 L 2.69160008430481 10.64000988006592 L 2.690150022506714 10.63792991638184 L 2.688689947128296 10.63584995269775 L 0.6226356029510498 7.715113162994385 L 5.5 1.455243468284607 L 5.5 14.69699096679688 Z"/><path class="x" d="M 5 2.910490036010742 L 1.245266914367676 7.729514122009277 L 3.096879959106445 10.34709930419922 L 3.099819898605347 10.35124969482422 L 3.102710008621216 10.35543060302734 L 5 13.09623241424561 L 5 2.910490036010742 M 6 0 L 6 16.29776000976563 L 2.280489921569824 10.92460060119629 L 0 7.700719833374023 L 6 0 Z"/></g></g><g transform="translate(-133 21)"><g class="f" transform="translate(908 378)"><path class="v" d="M 24.22920608520508 41.29705429077148 L 19.43630790710449 41.29705429077148 L 2.100477933883667 14.33022212982178 L 6.863285541534424 5.333835124969482 L 15.47294616699219 5.333835124969482 L 28.39291954040527 35.57198715209961 L 24.22920608520508 41.29705429077148 Z"/><path class="x" d="M 7.164335250854492 5.833835601806641 L 2.679172515869141 14.30578231811523 L 19.70928573608398 40.79705429077148 L 23.97460556030273 40.79705429077148 L 27.82161712646484 35.50745391845703 L 15.14285564422607 5.833835601806641 L 7.164335250854492 5.833835601806641 M 6.562252044677734 4.833835601806641 L 15.80304145812988 4.833835601806641 L 28.96423149108887 35.63653564453125 L 24.48382186889648 41.79705429077148 L 19.163330078125 41.79705429077148 L 1.521791458129883 14.35467529296875 L 6.562252044677734 4.833835601806641 Z"/></g><g class="n" transform="translate(909.522 391.759)"><path class="v" d="M 17.53820610046387 27.4606990814209 L 0.8260952830314636 0.7021948099136353 L 12.03483009338379 -1.02179479598999 L 26.79802513122559 21.6751823425293 L 22.95607948303223 25.37322998046875 L 17.53820610046387 27.4606990814209 Z"/><path class="ab" d="M 11.79174327850342 -0.4785251617431641 L 1.652202606201172 1.081014633178711 L 17.74363708496094 26.84572410583496 L 22.68207740783691 24.94297790527344 L 26.15361785888672 21.60145950317383 L 11.79174327850342 -0.4785251617431641 M 12.27793216705322 -1.565067291259766 L 27.44244194030762 21.74889373779297 L 23.23007202148438 25.80349349975586 L 17.33279228210449 28.07567405700684 L 1.9073486328125e-06 0.3233737945556641 L 12.27793216705322 -1.565067291259766 Z"/></g><g class="p" transform="translate(918 383)"><path class="v" d="M 16.72163772583008 26.07583236694336 L 13.73556995391846 22.03533554077148 L 4.886050224304199 7.654917240142822 L 5.962070941925049 1.69580066204071 L 16.72163772583008 26.07583236694336 Z"/><path class="ac" d="M 6.163951873779297 3.391630172729492 L 5.412063598632813 7.5556640625 L 14.1503267288208 21.75529098510742 L 14.44326114654541 22.15166473388672 L 6.163951873779297 3.391630172729492 M 5.76019287109375 0 L 19.00000381469727 30 L 13.32086277008057 22.31546020507813 L 4.360042572021484 7.754180908203125 L 5.76019287109375 0 Z"/></g></g><g transform="translate(5 -3)"><g class="f" transform="translate(771.481 426)"><path class="v" d="M 5.860779285430908 18.2877197265625 L 5.860779285430908 0.3981815874576569 L 10.35543060302734 6.511209011077881 L 5.860779285430908 18.2877197265625 Z"/><path class="x" d="M 6.360779762268066 1.922271728515625 L 6.360779762268066 15.57541942596436 L 9.791060447692871 6.58768367767334 L 6.360779762268066 1.922271728515625 M 5.360779762268066 -1.125917434692383 L 10.9197998046875 6.434721946716309 L 5.360779762268066 21.00000190734863 L 5.360779762268066 19.38232231140137 L 5.360779762268066 -1.125917434692383 Z"/></g><path class="q" d="M0,23V0" transform="translate(777.5 424.5)"/></g><line class="r" x2="8" y2="18" transform="translate(771.5 424.5)"/></g><g class="s" transform="translate(854.774 -70.173)"><path class="t" d="M29.774,52.838h0Zm8.2-3.225a25.085,25.085,0,0,1-22.293,1.15A25.572,25.572,0,0,1,7.519,45.1a26.4,26.4,0,0,1-5.5-8.4,27.222,27.222,0,0,1,0-20.568,26.384,26.384,0,0,1,5.5-8.4A25.542,25.542,0,0,1,15.68,2.076,24.893,24.893,0,0,1,25.673,0h0A25.105,25.105,0,0,1,38.036,3.259a27.875,27.875,0,0,0,0,46.318,36.118,36.118,0,0,0,9.878-8.717l.537,1.981,2.462,10H29.774C31.885,52.757,34.909,51.493,37.973,49.613Z" transform="translate(436.469 587.54)"/><g class="u" transform="translate(435.975 587.032)"><path class="v" d="M 0.4999984800815582 92.98262023925781 L 0.4999984800815582 33.41520309448242 C 3.669189929962158 45.06022262573242 13.97439575195313 53.33832931518555 26.16625785827637 53.33832931518555 C 26.81812286376953 53.33832931518555 27.47811889648438 53.31357574462891 28.1349983215332 53.26460647583008 L 28.1349983215332 92.98173522949219 L 0.4999984800815582 92.98262023925781 Z M 78.49640655517578 61.4833869934082 L 51.56257629394531 61.4833869934082 L 51.56257629394531 53.90830612182617 L 51.56257629394531 53.84634017944336 L 51.54744720458984 53.78624725341797 L 46.06271362304688 31.99924659729004 L 85.19656372070313 31.99924659729004 L 78.51840972900391 53.76162338256836 L 78.49640655517578 53.83331680297852 L 78.49640655517578 53.90830612182617 L 78.49640655517578 61.4833869934082 Z M 77.02381134033203 21.85418891906738 L 50.40326690673828 21.85418891906738 C 48.96294784545898 13.94579601287842 44.1132926940918 6.999567031860352 37.29044723510742 3.031385898590088 C 41.06646728515625 1.351209759712219 45.11814117431641 0.5000001192092896 49.34831619262695 0.5000001192092896 C 52.76166915893555 0.5000001192092896 56.0966682434082 1.065200090408325 59.26068115234375 2.179882526397705 C 62.31827926635742 3.256294250488281 65.13409423828125 4.813305854797363 67.63001251220703 6.807705879211426 C 72.49242401123047 10.69359970092773 75.81156921386719 16.01823806762695 77.02381134033203 21.85418891906738 Z"/><path class="y" d="M 1.000004410743713 92.48261260986328 L 27.6350040435791 92.48175048828125 L 27.6350040435791 53.79792785644531 C 27.14398574829102 53.82479476928711 26.65293502807617 53.83832931518555 26.1662540435791 53.83832931518555 C 14.80520248413086 53.83832931518555 5.052116870880127 46.78493881225586 1.000004410743713 36.5072135925293 L 1.000004410743713 92.48261260986328 M 77.99641418457031 60.98339462280273 L 77.99641418457031 53.90830612182617 L 77.99641418457031 53.75831604003906 L 78.04042053222656 53.61494445800781 L 84.52011871337891 32.49924087524414 L 46.70419311523438 32.49924087524414 L 52.03231811523438 53.66418075561523 L 52.06258010864258 53.78436660766602 L 52.06258010864258 53.90830612182617 L 52.06258010864258 60.98339462280273 L 77.99641418457031 60.98339462280273 M 76.40126037597656 21.35417938232422 C 75.11482238769531 15.86836624145508 71.92143249511719 10.87733554840088 67.31789398193359 7.198317527770996 C 64.86585235595703 5.238980293273926 62.09919357299805 3.709230184555054 59.09454345703125 2.651480197906494 C 55.98401641845703 1.55564272403717 52.70491790771484 1.00000524520874 49.34831619262695 1.00000524520874 C 45.51921081542969 1.00000524520874 41.83985137939453 1.708844304084778 38.38381958007813 3.109874248504639 C 44.77259826660156 7.14751672744751 49.32488632202148 13.80083084106445 50.8172607421875 21.35417938232422 L 76.40126037597656 21.35417938232422 M 28.6350040435791 93.48264312744141 L 28.63323020935059 93.48264312744141 L 28.63323020935059 93.48171997070313 L 4.364013875601813e-06 93.48264312744141 L 4.364013875601813e-06 28.45120429992676 L 0.1146418675780296 28.45120429992676 C 1.379229307174683 42.35443115234375 12.57835483551025 52.83832931518555 26.1662540435791 52.83832931518555 C 26.98916625976563 52.83832931518555 27.8200798034668 52.79809188842773 28.6350040435791 52.72035598754883 L 28.6350040435791 93.48264312744141 Z M 78.99641418457031 61.98339462280273 L 51.06258010864258 61.98339462280273 L 51.06258010864258 53.90830612182617 L 45.4212532043457 31.49924278259277 L 85.87300109863281 31.49924278259277 L 78.99641418457031 53.90830612182617 L 78.99641418457031 61.98339462280273 Z M 77.63051605224609 22.35417938232422 L 77.62873077392578 22.35417938232422 L 49.98284149169922 22.35417938232422 C 48.60982894897461 14.09345531463623 43.45371627807617 6.855142593383789 36.1905403137207 2.991355180740356 C 40.28469085693359 1.005955219268799 44.7111930847168 5.249023615760962e-06 49.34831619262695 5.249023615760962e-06 C 52.81771850585938 5.249023615760962e-06 56.20803070068359 0.5743177533149719 59.42683029174805 1.708305239677429 C 62.53630447387695 2.802955150604248 65.40142059326172 4.386892795562744 67.942138671875 6.417092800140381 C 73.06181335449219 10.50859260559082 76.50277709960938 16.1684684753418 77.63051605224609 22.35326766967773 L 77.63051605224609 22.35417938232422 Z"/></g></g></g></svg>