<svg xmlns="http://www.w3.org/2000/svg" xmlns:xlink="http://www.w3.org/1999/xlink" width="47.016" height="47.554" viewBox="0 0 47.016 47.554"><defs><clipPath id="a"><rect width="47" height="28" fill="#fff" stroke="#707070" stroke-width="1"/></clipPath><clipPath id="b"><rect width="46.696" height="29.214" fill="#fff" stroke="#707070" stroke-width="1.557"/></clipPath></defs><g transform="translate(0)" clip-path="url(#a)"><g transform="translate(0.203 -0.836)" clip-path="url(#b)"><g transform="translate(0 22.14)" fill="#010080" stroke="#010080" stroke-width="1.557"><rect width="44.666" height="6.479" stroke="none"/><rect x="0.779" y="0.779" width="43.109" height="4.922" fill="none"/></g><g transform="translate(17.38 6.565)"><path d="M14.588,20.051,8.349,6.194,11.457,3.3l4.286,1.286,1.975,14.932Z" transform="translate(-8.121 -3.115)" fill="#707070"/><path d="M10.873,2.737,7.93,5.477l6.143,13.645,2.778-.472-1.945-14.7L10.873,2.737m-.127-.37,4.54,1.364,2.006,15.161-3.484.592L7.473,5.414Z" transform="translate(-7.473 -2.367)" fill="#707070"/><g transform="translate(3.34 0.048)"><path d="M3.362,7.22l-.487-1.19L1.153.768l3.93,1.171Z" transform="translate(-0.862 -0.515)"/><path d="M.619,0,2.245,4.963l.269.658,1.5-4.609L.619,0M.036-.507,4.5.823,2.559,6.772l-.7-1.723Z" transform="translate(-0.036 0.507)"/></g><path d="M0,0,5.046,11.2l-.174-.1" transform="translate(0.284 2.77)" fill="none" stroke="#fff" stroke-width="3.113"/></g><g transform="translate(24.363 0.025)"><g transform="translate(0 0.888)" opacity="0.83"><path d="M6.88,25.06,2.428,7.24,13.4,2.77,21.35,6.6,12.1,21.441Z" transform="translate(-2.201 -2.591)" fill="#707070"/><path d="M12.747,2.225,2.011,6.6,6.368,24.037l4.925-3.413L20.444,5.932l-7.7-3.707m.017-.357,8.2,3.951L11.627,20.811,6.105,24.637,1.557,6.434Z" transform="translate(-1.557 -1.868)" fill="#707070"/></g><g transform="translate(0.691 5.749) rotate(-27.975)" opacity="0.7"><path d="M2.494,2.334,0,0,10.049.721l-2.1.591Z" transform="translate(0.44 0.195)"/><path d="M9.5,1.01.88.39,2.968,2.345l5.33-1L9.5,1.01M11.476.823l-3,.846L2.9,2.714,0,0Z" transform="translate(0 0)"/></g></g><g transform="translate(33.677 7.064)"><path d="M5.216,12.514,14,11.263l-3.568,5.11L1.46,26.932Z" transform="translate(-1.46 -9.072)" fill="#888"/><g transform="translate(0.05)"><path d="M6.787,1.864,3.469-1.685,12.548-.108,14.8.448Z" transform="translate(-2.995 1.926)" fill="#050505"/><path d="M2.6-2.418,5.531.716,12.7-.55l-1.55-.383L2.6-2.418M1.652-2.9l9.607,1.669,2.956.73L5.357,1.064Z" transform="translate(-1.652 2.9)" fill="#050505"/></g><path d="M7.878,2.845l4.117,3.233-4,14.45-.032-.019Z" transform="translate(-7.828 -2.323)" fill="#fff"/></g><g transform="translate(33.296 13.501)"><g transform="translate(0 1.234)"><path d="M2.69,12.249.778,11.617V1.763l4.909,3.4Z" transform="translate(-0.575 -1.413)" fill="#707070"/><path d="M.406.7v9.4l1.584.523L4.879,3.8.406.7M0,0,5.346,3.7,2.24,11.044,0,10.3Z" fill="#707070"/></g><g transform="translate(1.956 2.72)"><path d="M-11.47,2.807l3.162-7.815,3.079-1.366L-8.645,1.77Z" transform="translate(11.8 6.71)" fill="#010101"/><path d="M-6.521-7.4-9.073-6.263l-3,7.419L-9.748.3l3.227-7.7m.709-.672L-9.414.523l-3.323,1.22,3.323-8.212Z" transform="translate(12.737 8.068)" fill="#010101"/></g><g transform="translate(4.989)"><path d="M1.408,5.929,2.022,1.8,4.215,3.638l.588.541Z" transform="translate(-1.157 -1.443)" fill="#707070"/><path d="M1.462.713.948,4.171,3.794,2.7,3.35,2.293,1.462.713M1.159,0l2.5,2.091.732.678L.445,4.8Z" transform="translate(-0.445)" fill="#707070"/></g><path d="M.023,1.249,6.255,0,5.1,4.766,2.222,2.887Z" transform="translate(-0.017)" fill="#fff"/></g><path d="M-.665-3.113,7.415,2.26,4.946,4.409-2.461,1.275Z" transform="translate(30.47 21.588)"/><g transform="translate(28.594 18.438)"><path d="M5.16,4.5-1.518,1.81.027-1.781,7.235,2.783Z" transform="translate(1.764 2.045)" fill="#fff"/><path d="M-.571-2.586-1.969.666,4.42,3.239,6.243,1.728-.571-2.586m-.2-.528L6.829,1.7,4.509,3.625-2.461.817Z" transform="translate(2.461 3.114)" fill="#707070"/></g><g transform="translate(25.987 11.928)"><path d="M0-8.3,2.436-6.244V1.187L1.528,2.221,0,1.187Z" transform="translate(0 10.695)" fill="#fff"/><g transform="translate(2.436 2.166)"><path d="M.778,11.036V4.447l2.06-1.489.006,0,.006,0L3.9,2.058,3.316,9.67Z" transform="translate(-0.575 -1.626)" fill="#707070"/><path d="M3.087.743,2.425,1.3l-.011.009L2.4,1.321l-2,1.444V8.99L2.541,7.841l.545-7.1M3.56-.121,2.935,8.006,0,9.587V2.633L2.123,1.1Z" transform="translate(0 0.121)" fill="#707070"/></g><g transform="translate(2.436)"><path d="M.778,6.037V1.718L3.836,3.759l-1.193.878h0Z" transform="translate(-0.575 -1.378)" fill="#0f0f0f"/><path d="M.406.682V4.289L1.921,3.151h0l1.04-.762L.406.682M0,0,3.56,2.376,2.207,3.37,0,5.028Z" fill="#0f0f0f"/></g><path d="M2.95,6.353,1.809,5.1h0l-.84-.9L2.95,2.269Z" transform="translate(-0.716 -1.818)" fill="#707070"/><path d="M2.03.9.506,2.385l.752.808h0l.773.848V.9M2.436,0V5.028L.926,3.37,0,2.376Z" fill="#707070"/></g><g transform="translate(13.206 13.452)"><path d="M12.255,19.4H10.309l-7.04-8.32L5.2,8.3H8.7l5.246,9.329Z" transform="translate(-3.034 -8.148)" fill="#707070"/><path d="M4.663,7.837,2.839,10.449l6.915,8.173h1.732l1.562-1.632L7.9,7.837H4.663m-.245-.309H8.17l5.342,9.5-1.819,1.9H9.535L2.369,10.464Z" transform="translate(-2.369 -7.528)" fill="#707070"/><g transform="translate(0 2.269)"><path d="M8.072,7.2,1.286-1.058,5.837-1.59l5.995,7-1.56,1.141Z" transform="translate(-0.95 1.758)" fill="#fff"/><path d="M4.788-2.1.671-1.62,7.2,6.33l2.006-.587,1.41-1.031L4.788-2.1m.2-.335,6.157,7.193L9.432,6.008l-2.394.7L0-1.853Z" transform="translate(0 2.436)" fill="#fff"/></g><g transform="translate(5.213 0.05)"><path d="M12.411,10.162,11.2,8.916,7.605,4.479l.437-1.838Z" transform="translate(-7.392 -2.117)" fill="#020202"/><path d="M7.519,1.047,7.213,2.333l3.548,4.381.119.122L7.519,1.047M7.355,0l5.376,9.256L10.425,6.885,6.786,2.392Z" transform="translate(-6.786)" fill="#020202"/></g></g><g transform="translate(15.366 18.9)"><g transform="translate(0 0.115)"><path d="M9.122,6.139V.62l1.825,1.886Z" transform="translate(-8.919 -0.15)" fill="#707070"/><path d="M8.75-.813V3.4L10.143.627,8.75-.813m-.406-.94L10.6.58,8.344,5.074Z" transform="translate(-8.344 1.753)" fill="#707070"/></g><path d="M0,7.1V0" transform="translate(0.267)" fill="none" stroke="#fefbff" stroke-width="3.113"/></g><line x2="3.248" y2="5.554" transform="translate(11.167 19.826)" fill="none" stroke="#fefbff" stroke-width="6.226"/></g></g><rect width="29" height="16" transform="translate(13 30)" fill="#fff"/><g transform="translate(0.159 29.882)"><path d="M40.762,25.078H11.423L9.354,22.566,7.286,18.212H4.677L0,7.493c13.752-.05,24.792-.074,32.814-.074,13.716,0,14.044.073,14.044.074V25.078h-5.29a1.794,1.794,0,0,0,.061-.515c0-.085,0-.173,0-.262s0-.253,0-.533c.008-.411,0-.823-.021-1.233a.3.3,0,0,0-.151-.195,1.78,1.78,0,0,1-.6-.8,17.9,17.9,0,0,0,.681-5.3,19.113,19.113,0,0,0-.667-5.665c-.328-1.259-1.013-2.051-1.76-2.034s-1.421.841-1.733,2.115a19.217,19.217,0,0,0-.647,5.458,18.437,18.437,0,0,0,.65,5.322c.321,1.263.994,2.076,1.739,2.1a1.332,1.332,0,0,0,.868-.37,7.6,7.6,0,0,0,.751,1.884l.033.041Zm-8.768-2.6h0a1.861,1.861,0,0,1,.643.758.793.793,0,0,0,.18.248.421.421,0,0,0,.213.041.188.188,0,0,0,.2-.14,3.627,3.627,0,0,0,.038-.69V16.558a.577.577,0,0,1,.174-.5.339.339,0,0,0,.151-.209,2.576,2.576,0,0,0,.031-.5,1.281,1.281,0,0,0-.05-.455.2.2,0,0,0-.2-.1H31.347a.2.2,0,0,0-.206.1,1.921,1.921,0,0,0-.047.578.753.753,0,0,0,.182.592.788.788,0,0,1,.168.6v4.718a2.471,2.471,0,0,1-.1.8c-.067.179-.179.279-.295.266-.109.01-.212-.092-.27-.266a2.692,2.692,0,0,1-.09-.8v-9.7a5.027,5.027,0,0,1,.165-1.477c.1-.322.293-.511.493-.493.181.014.351.169.468.429a8.741,8.741,0,0,1,.506,1.531,7.468,7.468,0,0,0,.288.949.322.322,0,0,0,.319.136c.169,0,.255-.106.255-.316s-.023-.4-.048-.6l-.307-2.874c-.007-.2-.086-.369-.192-.407l-.153-.018h-.055c-.094,0-.177.111-.2.28-.042.2-.091.307-.149.307a.326.326,0,0,1-.177-.136,1.043,1.043,0,0,0-.825-.452c-.72.089-1.36.894-1.679,2.11a17.813,17.813,0,0,0-.71,5.507,19.037,19.037,0,0,0,.628,5.186c.267,1.256.9,2.109,1.617,2.187.424,0,.822-.394,1.065-1.047Zm-8.04,0h0a1.862,1.862,0,0,1,.643.758.8.8,0,0,0,.18.248.421.421,0,0,0,.213.041.186.186,0,0,0,.2-.14,3.617,3.617,0,0,0,.038-.69V16.558a.577.577,0,0,1,.174-.5.339.339,0,0,0,.151-.209,2.592,2.592,0,0,0,.031-.5,1.281,1.281,0,0,0-.05-.455.2.2,0,0,0-.2-.1h-2.03a.2.2,0,0,0-.206.1,1.919,1.919,0,0,0-.048.577.753.753,0,0,0,.182.592.788.788,0,0,1,.168.6v4.718a2.471,2.471,0,0,1-.1.8c-.067.179-.179.279-.295.266-.239,0-.36-.359-.36-1.066v-9.7a5.027,5.027,0,0,1,.165-1.477c.1-.321.294-.51.494-.491.181.014.351.169.468.429a8.749,8.749,0,0,1,.506,1.532,7.451,7.451,0,0,0,.288.949.322.322,0,0,0,.319.136c.169,0,.254-.106.254-.316s-.023-.4-.048-.6l-.307-2.874c-.007-.2-.086-.369-.192-.407l-.153-.028h-.058c-.093,0-.176.112-.2.28-.042.2-.092.307-.149.307a.326.326,0,0,1-.177-.136,1.044,1.044,0,0,0-.825-.452c-.72.089-1.361.894-1.679,2.11a17.8,17.8,0,0,0-.71,5.506,19.037,19.037,0,0,0,.628,5.186c.267,1.256.9,2.109,1.617,2.187.424,0,.821-.394,1.065-1.047ZM12.692,8.777a.15.15,0,0,0-.16.086,1.129,1.129,0,0,0-.036.357l0,.425a.586.586,0,0,0,.139.416.788.788,0,0,1,.255.623V21.6a.969.969,0,0,1-.031.293.316.316,0,0,1-.156.158.311.311,0,0,0-.163.185,3.629,3.629,0,0,0-.024.556c0,.378.058.569.174.569h2.173a.223.223,0,0,0,.213-.086,1.1,1.1,0,0,0,.053-.447,1.987,1.987,0,0,0-.045-.52.419.419,0,0,0-.16-.221.8.8,0,0,1-.24-.687V18.392h.594a1.329,1.329,0,0,0,.823-.3,2.922,2.922,0,0,0,.681-.768,4.55,4.55,0,0,0,.489-1.464,11.97,11.97,0,0,0,.194-2.268,8.22,8.22,0,0,0-.631-3.538c-.439-.865-1.055-1.331-1.691-1.279ZM39.105,22.52c-.107-.009-.2-.117-.259-.289a1.937,1.937,0,0,1-.11-.687V10.53a2.122,2.122,0,0,1,.1-.678c.059-.185.166-.3.281-.289s.213.107.274.28a1.9,1.9,0,0,1,.11.687v9.416a1.261,1.261,0,0,0-.379-.235c-.1,0-.144.125-.144.37l0,.245a.781.781,0,0,0,.11.452,1.8,1.8,0,0,1,.393.976,1.285,1.285,0,0,1-.113.5c-.061.163-.16.261-.266.265Zm-24.09-5.168H14.68V9.781h.245c.16-.017.314.127.4.378a3.668,3.668,0,0,1,.134,1.139v4.509A3.706,3.706,0,0,1,15.327,17c-.066.208-.183.34-.311.352Z" transform="translate(0 -7.419)" fill="#010080"/></g></svg>